<svg width="133" height="28" viewBox="0 0 133 28" fill="none" xmlns="http://www.w3.org/2000/svg">
<path d="M52.2869 5.01193C50.3278 4.99814 48.4249 5.66656 46.905 6.90248L46.7247 5.49865C46.7208 5.4632 46.7039 5.43045 46.6773 5.40673C46.6506 5.38301 46.6161 5.37 46.5805 5.37021H41.9941C41.9553 5.37021 41.918 5.38564 41.8906 5.41311C41.8631 5.44058 41.8477 5.47783 41.8477 5.51668V27.854C41.8477 27.8733 41.8514 27.8923 41.8588 27.9101C41.8662 27.9279 41.877 27.944 41.8906 27.9576C41.9042 27.9712 41.9203 27.982 41.9381 27.9894C41.9559 27.9967 41.9749 28.0005 41.9941 28.0005H47.4774C47.5159 27.9999 47.5526 27.9842 47.5796 27.9568C47.6066 27.9294 47.6217 27.8925 47.6217 27.854V21.6461C49.0083 22.5513 50.6309 23.0278 52.2869 23.0161C57.4411 23.0161 60.8014 19.0367 60.8014 14.014C60.8014 8.76374 57.245 5.01193 52.2869 5.01193ZM51.3087 17.8019C49.1317 17.8019 47.5541 16.2245 47.5541 14.014C47.5541 11.8035 49.1317 10.2307 51.3065 10.2307C53.4813 10.2307 55.0589 11.808 55.0589 14.014C55.0589 16.22 53.4948 17.8019 51.3087 17.8019Z" fill="white"/>
<path d="M31.9099 5.01194C29.9507 4.99777 28.0478 5.66624 26.528 6.90249L26.3477 5.49866C26.3434 5.4634 26.3263 5.43094 26.2998 5.40731C26.2733 5.38368 26.239 5.3705 26.2035 5.37022H21.6172C21.5783 5.37022 21.5411 5.38565 21.5136 5.41312C21.4861 5.44059 21.4707 5.47784 21.4707 5.51669V27.854C21.4707 27.8733 21.4745 27.8923 21.4819 27.9101C21.4892 27.9279 21.5 27.944 21.5136 27.9576C21.5272 27.9712 21.5434 27.982 21.5611 27.9894C21.5789 27.9967 21.598 28.0005 21.6172 28.0005H27.0982C27.1175 28.0005 27.1365 27.9967 27.1543 27.9894C27.1721 27.982 27.1882 27.9712 27.2018 27.9576C27.2154 27.944 27.2262 27.9279 27.2336 27.9101C27.2409 27.8923 27.2447 27.8733 27.2447 27.854V21.6461C28.6313 22.5513 30.254 23.0278 31.9099 23.0161C37.0641 23.0161 40.4244 19.0367 40.4244 14.014C40.4244 8.76375 36.8681 5.01194 31.9099 5.01194ZM30.9318 17.8019C28.7457 17.8019 27.1794 16.2246 27.1794 14.0185C27.1794 11.8125 28.757 10.2352 30.9318 10.2352C33.1066 10.2352 34.682 11.8125 34.682 14.0185C34.682 16.2246 33.1292 17.8019 30.9318 17.8019Z" fill="white"/>
<path d="M74.2067 5.36399C74.2065 5.32994 74.1949 5.29694 74.1736 5.27035C74.1523 5.24376 74.1227 5.22514 74.0895 5.21752C73.4757 5.07219 72.8474 4.9966 72.2167 4.99219C70.3889 4.99219 68.7572 5.66819 67.6822 7.02019L67.4997 5.38878C67.4963 5.35312 67.4795 5.32007 67.4527 5.29625C67.426 5.27244 67.3912 5.2596 67.3554 5.26034H62.3477C62.3092 5.26033 62.2723 5.27545 62.2449 5.30243C62.2175 5.32942 62.2018 5.3661 62.2012 5.40455V22.931C62.2012 22.9699 62.2166 23.0071 62.2441 23.0346C62.2715 23.0621 62.3088 23.0775 62.3477 23.0775H67.8355C67.8743 23.0775 67.9116 23.0621 67.939 23.0346C67.9665 23.0071 67.9819 22.9699 67.9819 22.931V14.4427C67.9819 11.7387 69.4829 10.4565 72.0927 10.4565C72.6945 10.4565 73.3278 10.3889 74.0377 10.5264C74.0586 10.5307 74.0803 10.5303 74.1011 10.5253C74.1219 10.5204 74.1414 10.5109 74.1582 10.4976C74.1749 10.4842 74.1886 10.4674 74.1981 10.4482C74.2077 10.4291 74.2129 10.4081 74.2135 10.3867L74.2067 5.36399Z" fill="white"/>
<path d="M83.5747 4.97656C78.0621 4.97656 74.082 8.72837 74.082 14.0125C74.082 19.2965 78.0621 23.0483 83.5747 23.0483C89.0873 23.0483 93.0763 19.265 93.0763 14.0125C93.0763 8.75992 89.0895 4.97656 83.5747 4.97656ZM83.5747 17.7958C81.4539 17.7958 79.856 16.2185 79.856 14.0125C79.856 11.8064 81.4539 10.2291 83.5747 10.2291C85.7292 10.2291 87.2933 11.8064 87.2933 14.0125C87.2933 16.2185 85.7292 17.8003 83.5747 17.8003V17.7958Z" fill="white"/>
<path d="M124.759 17.9505C122.492 18.48 120.477 17.2317 119.948 14.922C119.812 14.3935 119.785 13.8429 119.868 13.3035C119.951 12.7641 120.142 12.2472 120.43 11.7838C120.719 11.3205 121.098 10.9204 121.545 10.6078C121.993 10.2951 122.499 10.0763 123.033 9.96468C124.11 9.7123 125.185 9.75737 125.868 10.2328C126.77 10.866 126.544 11.9701 125.99 12.2383C125.327 12.556 124.455 12.6349 124.068 12.6777C123.422 12.7456 122.771 12.7622 122.123 12.7273C122.105 12.7254 122.086 12.7272 122.069 12.7326C122.051 12.738 122.035 12.7469 122.021 12.7587C122.007 12.7705 121.996 12.7849 121.988 12.8012C121.98 12.8175 121.975 12.8353 121.974 12.8535C121.945 13.4371 121.832 15.7648 121.805 16.4182C121.804 16.4365 121.807 16.4547 121.814 16.4717C121.82 16.4888 121.83 16.5043 121.843 16.5176C121.855 16.5308 121.87 16.5414 121.887 16.5487C121.904 16.556 121.922 16.5599 121.94 16.5602C124.473 16.6616 126.79 16.3889 129.033 15.2285C130.342 14.5525 131.613 13.2433 131.604 11.5015C131.512 9.89708 131.153 8.51578 129.801 7.25166C127.773 5.31829 124.908 4.52061 121.782 5.25294C116.743 6.43595 113.984 10.9043 115.186 16.0352C116.387 21.166 120.845 23.9489 125.886 22.7704C128.929 22.0583 131.137 20.1475 132.149 17.617C132.157 17.5966 132.16 17.5748 132.158 17.5531C132.156 17.5314 132.15 17.5104 132.139 17.4917C132.128 17.4729 132.113 17.4568 132.095 17.4446C132.076 17.4323 132.056 17.4243 132.034 17.421L126.923 16.7743C126.902 16.7721 126.882 16.7746 126.862 16.7816C126.843 16.7887 126.825 16.8 126.81 16.8148C126.252 17.3848 125.539 17.7795 124.759 17.9505Z" fill="#7DFFB2"/>
<path d="M104.912 4.99565C103.255 4.97458 101.63 5.45105 100.247 6.36343V0.146467C100.247 0.107622 100.231 0.0703671 100.204 0.0428992C100.176 0.0154313 100.139 0 100.1 0L94.6169 0C94.5784 0.000591664 94.5417 0.0162838 94.5148 0.0436878C94.4878 0.0710919 94.4727 0.108009 94.4727 0.146467V22.4951C94.4727 22.5335 94.4878 22.5705 94.5148 22.5979C94.5417 22.6253 94.5784 22.641 94.6169 22.6416H99.2077C99.2429 22.6414 99.2768 22.6285 99.3033 22.6053C99.3298 22.5821 99.3471 22.5502 99.3519 22.5154L99.5615 21.107C101.067 22.3478 102.961 23.018 104.912 22.9998C110.032 22.9998 113.426 19.052 113.426 13.9977C113.426 8.74521 109.87 4.99565 104.912 4.99565ZM103.934 17.7811C101.748 17.7811 100.181 16.2038 100.181 13.9977C100.181 11.7917 101.759 10.2144 103.934 10.2144C106.109 10.2144 107.684 11.7782 107.684 13.9977C107.684 16.2173 106.118 17.7811 103.934 17.7811Z" fill="#7DFFB2"/>
<path d="M20.0303 22.8163L12.9626 5.06897C12.9518 5.04185 12.9332 5.01857 12.9091 5.00211C12.885 4.98565 12.8566 4.97676 12.8274 4.97658H7.21114C7.18182 4.97613 7.15308 4.98477 7.12887 5.00131C7.10465 5.01786 7.08616 5.04149 7.07592 5.06897L0.0105266 22.8163C0.00169272 22.8381 -0.00165843 22.8618 0.000766021 22.8852C0.00319047 22.9086 0.0113167 22.9311 0.0244346 22.9507C0.0375524 22.9702 0.0552626 22.9863 0.0760174 22.9974C0.0967722 23.0086 0.11994 23.0144 0.143496 23.0146H5.9085C5.93867 23.0148 5.96816 23.0056 5.99282 22.9882C6.01748 22.9708 6.03607 22.9462 6.04597 22.9177L6.34121 22.0884C5.03184 21.5621 3.76586 20.9338 2.55497 20.2092C2.88401 20.4074 4.4571 20.8852 4.84024 21.0136C5.54534 21.2341 6.26149 21.4177 6.98577 21.5634C8.99446 21.9627 11.0621 21.9627 13.0708 21.5634C13.792 21.4188 14.5051 21.2368 15.2073 21.0181C15.5882 20.8987 17.1635 20.412 17.4903 20.2137C16.2794 20.9383 15.0135 21.5667 13.7041 22.0929L13.9993 22.9222C14.0095 22.9505 14.0282 22.975 14.0528 22.9923C14.0774 23.0096 14.1067 23.019 14.1368 23.0191H19.9018C19.9253 23.018 19.9483 23.0113 19.9687 22.9994C19.989 22.9876 20.0063 22.971 20.0189 22.9511C20.0315 22.9312 20.0391 22.9086 20.0411 22.8851C20.0431 22.8616 20.0394 22.838 20.0303 22.8163ZM7.97741 17.4443L8.66479 15.4163L10.017 11.5248L11.3692 15.4163L12.0454 17.4443C11.5495 17.7417 10.7765 17.895 10.0035 17.913C9.23047 17.931 8.47322 17.7417 7.97741 17.4443Z" fill="white"/>
</svg>
