<svg width="134" height="104" viewBox="0 0 134 104" fill="none" xmlns="http://www.w3.org/2000/svg">
<path d="M100.422 41.3226C101.508 42.5267 102.629 43.7647 102.629 44.7269C102.629 45.6893 101.508 46.9241 100.425 48.1244C99.2174 49.4594 97.9687 50.8421 97.5136 52.5428C97.0409 54.3051 97.4374 56.1713 97.8169 57.975C98.1272 59.4409 98.4829 61.107 98.041 61.8692C97.586 62.6552 96.0162 63.1626 94.5026 63.6522C92.7642 64.2181 90.9671 64.794 89.6945 66.0698C88.4219 67.3424 87.8422 69.1393 87.2802 70.8778C86.7905 72.3922 86.2831 73.9613 85.4932 74.4202C84.7272 74.8582 83.0651 74.5033 81.5962 74.1961C80.382 73.9374 79.1402 73.6718 77.9192 73.6718C77.3295 73.6718 76.7428 73.7342 76.1708 73.8858C74.4701 74.3408 73.0873 75.5896 71.7524 76.7969C70.5521 77.8801 69.3142 79.0012 68.3549 79.0012C67.3964 79.0012 66.1546 77.8802 64.9543 76.7969C63.6193 75.5897 62.2398 74.3449 60.5398 73.8858C58.7737 73.417 56.9114 73.8065 55.1106 74.193C53.6416 74.5002 51.9756 74.8551 51.2135 74.4171C50.4236 73.9621 49.917 72.3892 49.4266 70.8747C48.8676 69.1363 48.2848 67.3393 47.0122 66.0667C45.7396 64.7941 43.9456 64.2143 42.2073 63.6523C40.6898 63.1627 39.1238 62.6591 38.665 61.8654C38.2238 61.1032 38.5757 59.4372 38.889 57.9713C39.2716 56.1674 39.665 54.305 39.1923 52.539C38.7373 50.8383 37.4917 49.4587 36.2813 48.1206C35.1981 46.9204 34.077 45.6855 34.077 44.7231C34.077 43.7608 35.198 42.5228 36.2842 41.3225C37.4914 39.9875 38.7363 38.6048 39.1921 36.9041C39.6648 35.1419 39.2714 33.2757 38.8888 31.4788C38.5785 30.0098 38.2228 28.3438 38.6648 27.5817C39.1198 26.7956 40.6857 26.2883 42.2002 25.7986C43.9386 25.2366 45.7386 24.6569 47.012 23.3811C48.2815 22.1085 48.8643 20.3116 49.4232 18.573C49.9129 17.0587 50.4202 15.4927 51.2063 15.0347C51.9685 14.5966 53.6344 14.9484 55.1034 15.2587C56.9003 15.6452 58.7626 16.0347 60.5287 15.5659C62.2294 15.1109 63.6122 13.8621 64.9471 12.6511C66.1543 11.574 67.3962 10.4531 68.3546 10.4531C69.3131 10.4531 70.555 11.5741 71.7521 12.6574C73.0871 13.8677 74.4666 15.1134 76.1666 15.5722C77.9327 16.041 79.7881 15.6415 81.5919 15.265C83.0608 14.9547 84.7268 14.599 85.489 15.0371C86.2789 15.4921 86.7855 17.065 87.2759 18.5795C87.8348 20.3179 88.4177 22.1149 89.6903 23.3875C90.9629 24.6601 92.7568 25.2399 94.4952 25.8019C96.0165 26.2885 97.5824 26.795 98.0375 27.5849C98.4786 28.351 98.1268 30.0131 97.8135 31.482C97.4308 33.2828 97.0374 35.1452 97.5101 36.9074C97.9651 38.6081 99.2139 39.9915 100.421 41.3226L100.422 41.3226Z" fill="#7DFFB2" stroke="black" stroke-width="1.90052"/>
<path d="M80.8675 34.1132C80.3069 33.5663 79.5521 33.2578 78.7616 33.2578C77.971 33.2578 77.2162 33.5593 76.6557 34.1132L64.1997 46.2014L60.2106 42.2819C59.0605 41.16 57.1702 41.146 56.0059 42.2609C54.8343 43.3758 54.8199 45.2198 55.9699 46.3698L62.065 52.3578C62.6256 52.9047 63.3803 53.2132 64.1781 53.2132C64.9687 53.2132 65.7162 52.9117 66.2769 52.3648L80.8538 38.2291C82.0038 37.1073 82.0181 35.2632 80.8753 34.1273L80.8675 34.1132Z" fill="#FFFFF3" stroke="black" stroke-width="1.90052"/>
<path d="M59.3192 78.479L59.3192 78.479L59.3108 78.4768C59.0567 78.4074 58.6388 78.4005 58.0324 78.4784C57.5296 78.5431 56.9798 78.6535 56.397 78.7751L56.0996 78.8385C56.0536 78.8483 56.0072 78.8582 55.9604 78.8682C53.9953 79.288 51.3723 79.8482 49.0883 78.6612V101.679L66.6429 88.5002C66.6438 88.4995 66.6447 88.4989 66.6455 88.4982C67.6604 87.7279 69.0597 87.7279 70.0745 88.4982C70.0754 88.4989 70.0763 88.4995 70.0772 88.5002L87.6317 101.679L87.6311 78.6638C85.3503 79.8399 82.7359 79.2859 80.7731 78.87C80.7221 78.8592 80.6715 78.8485 80.6214 78.8379C80.6211 78.8379 80.6208 78.8378 80.6204 78.8377L80.5627 78.8256C79.8904 78.685 79.2562 78.5523 78.6837 78.4787C78.075 78.4005 77.6587 78.4078 77.4096 78.4763L77.4096 78.4763L77.3994 78.479C77.1871 78.5349 76.8513 78.7203 76.383 79.0809C75.9335 79.4271 75.4538 79.8604 74.9475 80.3196L74.9447 80.322C74.9066 80.3564 74.868 80.3911 74.8292 80.4261C73.2509 81.8479 71.1402 83.7494 68.3593 83.7494C65.5624 83.7494 63.4465 81.8351 61.8661 80.4054C61.8346 80.377 61.8033 80.3487 61.7723 80.3206L61.7419 80.2932C61.2437 79.8443 60.7748 79.4217 60.3338 79.0815C59.865 78.7198 59.5306 78.5346 59.3192 78.479Z" fill="#F6C538" stroke="black" stroke-width="1.90052"/>
<rect x="123.533" y="41.1367" width="4.05307" height="2.20337" rx="1.10169" transform="rotate(-38.412 123.533 41.1367)" fill="#FDEA47"/>
<rect x="125.793" y="34.2109" width="4.05307" height="2.20337" rx="1.10169" transform="rotate(50.9166 125.793 34.2109)" fill="#FDEA47"/>
<rect x="130.199" y="39.7188" width="4.05307" height="2.20337" rx="1.10169" transform="rotate(50.9166 130.199 39.7188)" fill="#FDEA47"/>
<rect x="128.492" y="37.2812" width="4.05307" height="2.20337" rx="1.10169" transform="rotate(-38.412 128.492 37.2812)" fill="#FDEA47"/>
<rect x="19.9551" y="6.92578" width="4.05307" height="2.20337" rx="1.10169" transform="rotate(-38.412 19.9551 6.92578)" fill="#FFB600"/>
<rect x="22.2148" width="4.05307" height="2.20337" rx="1.10169" transform="rotate(50.9166 22.2148 0)" fill="#FFB600"/>
<rect x="26.6211" y="5.50781" width="4.05307" height="2.20337" rx="1.10169" transform="rotate(50.9166 26.6211 5.50781)" fill="#FFB600"/>
<rect x="24.9141" y="3.07031" width="4.05307" height="2.20337" rx="1.10169" transform="rotate(-38.412 24.9141 3.07031)" fill="#FFB600"/>
<rect x="105.479" y="96.25" width="4.05307" height="2.20337" rx="1.10169" transform="rotate(-38.412 105.479 96.25)" fill="#7DFFB2"/>
<rect x="107.738" y="89.3242" width="4.05307" height="2.20337" rx="1.10169" transform="rotate(50.9166 107.738 89.3242)" fill="#7DFFB2"/>
<rect x="112.146" y="94.832" width="4.05307" height="2.20337" rx="1.10169" transform="rotate(50.9166 112.146 94.832)" fill="#7DFFB2"/>
<rect x="110.438" y="92.3906" width="4.05307" height="2.20337" rx="1.10169" transform="rotate(-38.412 110.438 92.3906)" fill="#7DFFB2"/>
<circle cx="22.8068" cy="54.1661" r="1.90052" fill="#7DFFB2"/>
<rect y="34.2422" width="4.07934" height="4.07934" rx="1.90052" transform="rotate(-45 0 34.2422)" fill="#FDEA47"/>
<rect x="114.031" y="7.52344" width="6.42708" height="6.42708" rx="1.90052" transform="rotate(-61.0417 114.031 7.52344)" fill="#FFB600"/>
<circle cx="114.981" cy="59.8654" r="1.90052" fill="#3886FF"/>
<circle cx="29.4572" cy="82.674" r="1.90052" fill="#FFB600"/>
</svg>
