<?xml version="1.0" encoding="UTF-8"?>
<svg id="Capa_2" data-name="Capa 2" xmlns="http://www.w3.org/2000/svg" viewBox="0 0 359.24 315.72">
  <defs>
    <style>
      .cls-1 {
        fill: none;
        stroke: #211915;
        stroke-miterlimit: 10;
        stroke-width: 4px;
      }

      .cls-2 {
        fill: #438dfc;
      }

      .cls-2, .cls-3 {
        stroke-width: 0px;
      }

      .cls-3 {
        fill: #f6c538;
      }
    </style>
  </defs>
  <g id="Layer_1" data-name="Layer 1">
    <path class="cls-3" d="M92.37,147.6s1.66,23.87,21.96,22.57c20.3-1.3,21.49-29.5,21.49-29.5v-21.87s10.9-8.38,10.62-25.88c-.28-17.51-8.05-39.62-30.21-40.07s-30.95,16.92-32.63,28.78c-1.68,11.86,1.93,33.63,9.23,36.01l-.46,29.96Z"/>
    <path class="cls-2" d="M92.83,148.85s2.16,22.98,21.88,21.29c19.72-1.7,22.07-28.98,22.07-28.98,0,0,19.23,10.77,41.17,1.11s53.42-23.97,53.42-23.97l61.66-52.98s-6.62,18.33,3.55,22.38,18.73,4.4,18.73,4.4l-46.22,52.12s-9.75,18.08-54.32,35.86l-33.37,16.47v117.16h-106.46l-3.54-35.21-40.6,10.17s-16.36,1.68-23.37-8.8c-7.01-10.49-6.48-26.83,0-38.72,6.48-11.89,32.41-60,55.24-76.87s30.16-15.43,30.16-15.43Z"/>
    <path class="cls-3" d="M315.31,92.11l20.99-18.59h8.63l10.51,1.33,3.05-2.88-8.3-8.79-14.8-4.89s-4.07-7.57-3.46-12.22,5.51-31.46,5.51-31.46l-.28-11.73-4.62-.89-4.58,9.13-5.87,4.82-11.18,15.42-8.5,17.75-8.75,15.3-2.81,11.05,1.78,7.71,4.49,5.94,7.3,2.97h10.9Z"/>
    <polygon class="cls-3" points="102.04 233.98 99.16 243.43 99.16 254.37 107.91 263.29 112.95 267.05 131.36 263.19 153.12 260.42 162.32 256.83 164 254.71 159.14 252.06 154.28 250.51 168.88 241.69 176.22 232.45 178.11 225.13 157.97 227.05 166.79 217.96 165.96 215.04 126.4 225.81 125.42 223.34 131.58 210.83 129.54 206.83 102.04 233.98"/>
    <path class="cls-1" d="M92.83,118.31v30.54s0,21.29,21.7,21.29,21.29-26.61,21.29-26.61v-25.22"/>
    <path class="cls-1" d="M135.82,140.67h0c13.05,6.98,28.59,7.57,42.14,1.61l47.73-20.99c4.48-1.97,8.64-4.61,12.32-7.84l55.03-48.12s-6.82,14.74,3.55,22.38c10.37,7.64,20.47,2.43,20.47,2.43l-55.97,63.11c-4.14,4.67-9.14,8.48-14.73,11.24l-64.96,32.06"/>
    <polyline class="cls-1" points="181.4 190.41 181.4 313.72 74.94 313.72 71.4 278.51"/>
    <line class="cls-1" x1="94.06" y1="196.55" x2="68.88" y2="236.88"/>
    <path class="cls-1" d="M42.88,238.11l59.16-3.28s-7.16,12.28,0,23.13c7.16,10.85,21.29,6.35,21.29,6.35l-92.53,24.36s-17.2,4.37-27.02-14.4,24.26-69.23,24.26-69.23c0,0,23.17-36.68,43.37-46.37,20.2-9.69,21.68-10.34,21.68-10.34"/>
    <path class="cls-1" d="M293.04,65.33s6.96-9.83,13.51-25.18c6.55-15.35,17.74-28.45,23.06-29.68"/>
    <path class="cls-1" d="M320.67,36.67s5.19-11.4,7.37-19.52c2.18-8.12,2.18-14.88,5.87-15.15,3.68-.27,4.16,7.03,3.28,15.29-.89,8.26-7.71,30.98-4.71,37.12,3,6.14,5.73,4.64,12.15,6.28,6.41,1.64,13.92,8.32,12.42,12.83-1.5,4.5-15.97-2.87-20.74,0-4.78,2.87-19.24,16.62-19.24,16.62"/>
    <path class="cls-1" d="M145.24,243.43s23.64-9.31,27.94-11.77c2.35-1.34,3.72-2.44,4.48-3.16.6-.57.61-1.57-.05-2.06-6.15-4.55-36.04,6.93-31.14,4.82,5.22-2.25,23.85-13.41,21.19-15.87s-34.6,8.91-38.9,10.13c-4.3,1.23-4.96-1.07-.92-5.83s4.61-11.52,2.81-12.54-2.41.26-7.32,5.99-21.29,21.7-21.29,21.7"/>
    <path class="cls-1" d="M176.88,229.18c-.49,13.28-27.55,23.46-27.55,23.46,0,0,9.16.31,13.36-.41,4.2-.72.51,7.57-9.57,8.19s-31.8,4.42-31.8,4.42"/>
    <path class="cls-1" d="M114.71,52.85h0c17.17,0,31.12,13.94,31.12,31.12v12.71c0,15.68-12.73,28.42-28.42,28.42h-5.4c-15.68,0-28.42-12.73-28.42-28.42v-12.71c0-17.17,13.94-31.12,31.12-31.12Z"/>
  </g>
</svg>