<?xml version="1.0" encoding="UTF-8"?>
<svg id="Capa_2" data-name="Capa 2" xmlns="http://www.w3.org/2000/svg" xmlns:xlink="http://www.w3.org/1999/xlink" viewBox="0 0 539.74 670.85">
  <defs>
    <style>
      .cls-1 {
        clip-path: url(#clippath);
      }

      .cls-2, .cls-3 {
        fill: #0e193d;
      }

      .cls-4 {
        fill: none;
        stroke: #211915;
        stroke-miterlimit: 10;
        stroke-width: 4px;
      }

      .cls-5, .cls-3, .cls-6, .cls-7, .cls-8 {
        stroke-width: 0px;
      }

      .cls-6 {
        fill: #211915;
      }

      .cls-7 {
        fill: #7cfcbb;
      }

      .cls-8 {
        fill: #f6c538;
      }
    </style>
    <clipPath id="clippath">
      <circle class="cls-3" cx="269.87" cy="269.87" r="182.73"/>
    </clipPath>
  </defs>
  <g id="Layer_1" data-name="Layer 1">
    <circle class="cls-7" cx="269.87" cy="269.87" r="267.87"/>
    <g>
      <circle class="cls-4" cx="269.87" cy="269.87" r="267.87"/>
      <path class="cls-4" d="M75.32,269.87c0-98.75,73.57-180.31,168.89-192.87"/>
      <path class="cls-4" d="M395.94,418.04c-33.95,28.92-77.97,46.37-126.07,46.37"/>
      <path class="cls-4" d="M337.87,87.54c35.09,13.09,65.38,36.02,87.52,65.43"/>
      <g id="Vpa11l">
        <path class="cls-5" d="M172.52,483.82c4.7.12,9.41.22,14.11.4.98.04,1.59-.2,2.18-1.03,2.52-3.58,5.13-7.11,7.71-10.65.21-.29.43-.56.76-1,.15.48.27.84.38,1.19,1.23,4.17,2.51,8.33,3.67,12.53.29,1.06.84,1.51,1.84,1.82,4.46,1.4,8.89,2.87,13.52,4.38-.39.29-.66.49-.93.69-3.67,2.52-7.32,5.07-11.02,7.55-.74.5-1.01,1.03-1.01,1.92.04,4.77.02,9.55.02,14.49-.36-.25-.61-.41-.85-.6-3.63-2.79-7.27-5.57-10.88-8.38-.55-.43-1.02-.5-1.68-.28-4.31,1.44-8.64,2.83-12.96,4.23-.31.1-.62.18-1.08.32.86-2.43,1.66-4.73,2.48-7.03.82-2.31,1.63-4.63,2.48-6.93.23-.62.14-1.08-.25-1.62-2.7-3.67-5.35-7.36-8.04-11.04-.19-.26-.47-.45-.7-.68.09-.09.18-.18.26-.27Z"/>
      </g>
      <g id="Vpa11l-2" data-name="Vpa11l">
        <path class="cls-5" d="M474.22,358.62c4.7.12,9.41.22,14.11.4.98.04,1.59-.2,2.18-1.03,2.52-3.58,5.13-7.11,7.71-10.65.21-.29.43-.56.76-1,.15.48.27.84.38,1.19,1.23,4.17,2.51,8.33,3.67,12.53.29,1.06.84,1.51,1.84,1.82,4.46,1.4,8.89,2.87,13.52,4.38-.39.29-.66.49-.93.69-3.67,2.52-7.32,5.07-11.02,7.55-.74.5-1.01,1.03-1.01,1.92.04,4.77.02,9.55.02,14.49-.36-.25-.61-.41-.85-.6-3.63-2.79-7.27-5.57-10.88-8.38-.55-.43-1.02-.5-1.68-.28-4.31,1.44-8.64,2.83-12.96,4.23-.31.1-.62.18-1.08.32.86-2.43,1.66-4.73,2.48-7.03.82-2.31,1.63-4.63,2.48-6.93.23-.62.14-1.08-.25-1.62-2.7-3.67-5.35-7.36-8.04-11.04-.19-.26-.47-.45-.7-.68.09-.09.18-.18.26-.27Z"/>
      </g>
      <g id="Vpa11l-3" data-name="Vpa11l">
        <path class="cls-5" d="M362.9,50.91c4.7.12,9.41.22,14.11.4.98.04,1.59-.2,2.18-1.03,2.52-3.58,5.13-7.11,7.71-10.65.21-.29.43-.56.76-1,.15.48.27.84.38,1.19,1.23,4.17,2.51,8.33,3.67,12.53.29,1.06.84,1.51,1.84,1.82,4.46,1.4,8.89,2.87,13.52,4.38-.39.29-.66.49-.93.69-3.67,2.52-7.32,5.07-11.02,7.55-.74.5-1.01,1.03-1.01,1.92.04,4.77.02,9.55.02,14.49-.36-.25-.61-.41-.85-.6-3.63-2.79-7.27-5.57-10.88-8.38-.55-.43-1.02-.5-1.68-.28-4.31,1.44-8.64,2.83-12.96,4.23-.31.1-.62.18-1.08.32.86-2.43,1.66-4.73,2.48-7.03.82-2.31,1.63-4.63,2.48-6.93.23-.62.14-1.08-.25-1.62-2.7-3.67-5.35-7.36-8.04-11.04-.19-.26-.47-.45-.7-.68.09-.09.18-.18.26-.27Z"/>
      </g>
    </g>
    <g>
      <circle class="cls-3" cx="269.87" cy="269.87" r="182.73"/>
      <g>
        <circle class="cls-2" cx="269.87" cy="269.87" r="182.73"/>
        <g class="cls-1">
          <path class="cls-7" d="M315.78,348.37c10.35-4.79,20.57-9.52,30.78-14.25-.11-.51-.21-1.03-.32-1.54-47.9,18.13-95.75,18.63-143.85,1.03,3.31,1.75,6.58,3.55,9.93,5.23,3.53,1.76,7.11,3.41,10.69,5.07,1.04.48,2.16.77,3.2,1.26,7.03,3.33,6.9,3.3,4.46,10.53-1.07,3.19-2.78,4.28-6.16,4.26-19.82-.15-39.65-.06-59.48-.08-5.55,0-6.27-.93-4.21-6.07,8.21-20.51,16.6-40.96,24.77-61.48,13.45-33.75,26.79-67.54,40.17-101.31,4.46-11.26,8.88-22.53,13.34-33.79,1.15-2.9,3.02-4.26,6.43-4.23,19.16.16,38.32.11,57.48.05,3.61-.01,5.39,1.35,6.79,4.91,13.24,33.66,26.74,67.21,40.16,100.8,12.51,31.31,25.04,62.61,37.51,93.93,2.4,6.02,1.49,7.21-5.05,7.21-18.33,0-36.65,0-54.98,0q-8.11,0-10.64-7.65c-.36-1.07-.59-2.19-1.03-3.85ZM274.39,230.24c-7.82,22.61-15.18,43.86-22.61,65.35,15.32,6.44,30.11,6.45,45.23-.17-7.57-21.81-14.89-42.91-22.62-65.18Z"/>
        </g>
      </g>
    </g>
    <g>
      <path class="cls-8" d="M326.21,645.32s19.29-7.85,19.11-16.3-3.5-10.85-3.5-10.85c0,0,10.68-9.2,3.5-21.17,0,0,12.88-12.33,2.48-24.3,0,0,8.57-5.71,4.06-20.8-4.51-15.09-24.36-12.33-33.3-9.76-8.94,2.58-26.8,6.44-26.8,6.44,0,0-1.74-69.05-35.42-52.11,0,0,12.54,29.56,3.48,42.9-9.06,13.34-25.95,24.52-23.15,34.92l19.61,68.92s20.55,14.71,40.41-1.87c0,0,4.16,15.72,29.53,3.96Z"/>
      <path class="cls-4" d="M332.24,556.57l-25.97,6.83s-12.91,5.46-7.29,16.85c5.5,11.15,40.54-3.33,40.54-3.33"/>
      <path class="cls-4" d="M255.53,494.29s12.65,32.44,4.28,45.09c-8.37,12.65-25.5,24.13-24.08,31.14,1.43,7.01,20,71.89,20,71.89,0,0,17.75,14.28,37.54,0"/>
      <path class="cls-4" d="M302.94,583.57s-9.63,6.62-5.36,17.02c4.27,10.41,40.18,1.02,40.18,1.02"/>
      <path class="cls-4" d="M333.26,622.83l-20.61,5.3s-13.47,4.69-13.67-7.55c-.2-12.24,11.22-15.1,11.22-15.1"/>
      <path class="cls-4" d="M305.11,629.02s-13.26,3.2-6.12,15.23c7.14,12.04,34.28-2.04,34.28-2.04"/>
      <line class="cls-4" x1="235.73" y1="570.52" x2="190.88" y2="571.53"/>
      <line class="cls-4" x1="195.64" y1="587.89" x2="155.03" y2="594.53"/>
      <polyline class="cls-4" points="255.73 642.42 218.95 667.59 202.66 605.49"/>
      <line class="cls-4" x1="190.52" y1="665.93" x2="214.95" y2="652.36"/>
      <circle class="cls-6" cx="228.35" cy="643.96" r="4.89"/>
    </g>
  </g>
</svg>