<svg width="40" height="40" viewBox="0 0 40 40" fill="none" xmlns="http://www.w3.org/2000/svg">
<g clip-path="url(#clip0_11820_541)">
<path d="M34.2885 40H5.71147C4.1967 40 2.74396 39.3983 1.67285 38.3271C0.601743 37.256 0 35.8033 0 34.2885L0 5.71147C0 4.1967 0.601743 2.74396 1.67285 1.67285C2.74396 0.601743 4.1967 0 5.71147 0L34.2885 0C35.8033 0 37.256 0.601743 38.3271 1.67285C39.3983 2.74396 40 4.1967 40 5.71147V34.2885C40 35.8033 39.3983 37.256 38.3271 38.3271C37.256 39.3983 35.8033 40 34.2885 40Z" fill="#181C35"/>
<path d="M36.5335 34.5641L24.8545 5.2583C24.8413 5.21155 24.8128 5.1706 24.7735 5.14202C24.7342 5.11345 24.6864 5.09891 24.6379 5.10074H15.3617C15.3139 5.102 15.2676 5.11773 15.2289 5.14586C15.1902 5.17399 15.161 5.2132 15.145 5.2583L3.46607 34.5641C3.45381 34.6019 3.45054 34.6421 3.45652 34.6814C3.46249 34.7207 3.47754 34.7581 3.50048 34.7906C3.52341 34.8231 3.5536 34.8498 3.58865 34.8686C3.6237 34.8874 3.66265 34.8977 3.7024 34.8989H13.215C13.2655 34.8989 13.3149 34.8839 13.357 34.8559C13.399 34.8278 13.4319 34.788 13.4513 34.7413L13.924 33.3824C11.7655 32.5082 9.67817 31.4678 7.68074 30.2706C8.2125 30.6054 10.8122 31.3932 11.4424 31.5902C12.608 31.9521 13.7912 32.2545 14.9875 32.4961C16.6394 32.8372 18.3229 33.0023 20.0096 32.9885C21.6963 33.0014 23.3797 32.8363 25.0318 32.4961C26.2135 32.2598 27.3952 31.9447 28.5572 31.5902C29.1874 31.3932 31.7871 30.6054 32.3385 30.2706C30.3322 31.464 28.2386 32.5042 26.0756 33.3824L26.568 34.7413C26.5839 34.7864 26.6131 34.8256 26.6518 34.8538C26.6905 34.8819 26.7368 34.8976 26.7846 34.8989H36.3169C36.3549 34.8949 36.3916 34.8825 36.4242 34.8625C36.4568 34.8425 36.4845 34.8154 36.5053 34.7833C36.5261 34.7512 36.5394 34.7148 36.5443 34.6769C36.5492 34.6389 36.5455 34.6004 36.5335 34.5641ZM16.6418 25.7014L17.7644 22.3533L20.0096 15.9328L22.2351 22.3533L23.3774 25.7014C22.5503 26.1938 21.2898 26.4498 20.0096 26.4695C18.7295 26.4892 17.4493 26.1938 16.6418 25.7014Z" fill="#7DFFB2"/>
</g>
<defs>
<clipPath id="clip0_11820_541">
<rect width="40" height="40" fill="white"/>
</clipPath>
</defs>
</svg>
