<svg width="118" height="25" viewBox="0 0 118 25" fill="none" xmlns="http://www.w3.org/2000/svg">
<path d="M46.6841 4.47449C44.9349 4.46218 43.2359 5.05898 41.8788 6.16248L41.7178 4.90906C41.7144 4.87741 41.6993 4.84817 41.6755 4.82699C41.6517 4.80581 41.6209 4.79419 41.5891 4.79438H37.4941C37.4595 4.79438 37.4262 4.80816 37.4017 4.83269C37.3771 4.85721 37.3633 4.89048 37.3633 4.92516V24.8692C37.3633 24.8864 37.3667 24.9034 37.3733 24.9193C37.3799 24.9351 37.3895 24.9496 37.4017 24.9617C37.4138 24.9738 37.4282 24.9835 37.4441 24.99C37.46 24.9966 37.477 25 37.4941 25H42.3899C42.4243 24.9995 42.457 24.9855 42.4811 24.961C42.5052 24.9365 42.5187 24.9036 42.5187 24.8692V19.3264C43.7567 20.1346 45.2055 20.5601 46.6841 20.5497C51.2861 20.5497 54.2863 16.9966 54.2863 12.5121C54.2863 7.82432 51.111 4.47449 46.6841 4.47449ZM45.8107 15.8941C43.8669 15.8941 42.4583 14.4858 42.4583 12.5121C42.4583 10.5384 43.8669 9.13408 45.8087 9.13408C47.7505 9.13408 49.1591 10.5424 49.1591 12.5121C49.1591 14.4817 47.7626 15.8941 45.8107 15.8941Z" fill="#191F38"/>
<path d="M28.4914 4.4745C26.7421 4.46185 25.0431 5.0587 23.6861 6.16249L23.5252 4.90907C23.5212 4.87759 23.506 4.84861 23.4823 4.82751C23.4586 4.80641 23.4281 4.79464 23.3964 4.7944H19.3015C19.2668 4.7944 19.2335 4.80817 19.209 4.8327C19.1844 4.85722 19.1707 4.89049 19.1707 4.92517V24.8692C19.1707 24.8864 19.174 24.9034 19.1806 24.9193C19.1872 24.9351 19.1968 24.9496 19.209 24.9617C19.2211 24.9739 19.2355 24.9835 19.2514 24.9901C19.2673 24.9966 19.2843 25 19.3015 25H24.1952C24.2124 25 24.2294 24.9966 24.2453 24.9901C24.2612 24.9835 24.2756 24.9739 24.2877 24.9617C24.2999 24.9496 24.3095 24.9351 24.3161 24.9193C24.3226 24.9034 24.326 24.8864 24.326 24.8692V19.3264C25.564 20.1346 27.0129 20.5601 28.4914 20.5497C33.0934 20.5497 36.0936 16.9966 36.0936 12.5121C36.0936 7.82433 32.9183 4.4745 28.4914 4.4745ZM27.6181 15.8941C25.6662 15.8941 24.2677 14.4858 24.2677 12.5161C24.2677 10.5464 25.6762 9.13811 27.6181 9.13811C29.5599 9.13811 30.9664 10.5464 30.9664 12.5161C30.9664 14.4858 29.58 15.8941 27.6181 15.8941Z" fill="#191F38"/>
<path d="M66.2572 4.79037C66.2571 4.75997 66.2466 4.7305 66.2277 4.70676C66.2087 4.68302 66.1822 4.6664 66.1526 4.6596C65.6045 4.52983 65.0436 4.46234 64.4804 4.4584C62.8484 4.4584 61.3916 5.06198 60.4317 6.26912L60.2688 4.8125C60.2657 4.78067 60.2507 4.75116 60.2269 4.72989C60.203 4.70863 60.1719 4.69717 60.14 4.69782H55.6688C55.6344 4.69782 55.6014 4.71132 55.577 4.73541C55.5525 4.7595 55.5385 4.79225 55.538 4.82658V20.4752C55.538 20.5099 55.5517 20.5432 55.5763 20.5677C55.6008 20.5922 55.6341 20.606 55.6688 20.606H60.5686C60.6033 20.606 60.6365 20.5922 60.6611 20.5677C60.6856 20.5432 60.6994 20.5099 60.6994 20.4752V12.8964C60.6994 10.4821 62.0395 9.33729 64.3697 9.33729C64.907 9.33729 65.4724 9.27693 66.1063 9.39966C66.125 9.40349 66.1443 9.40316 66.1629 9.39872C66.1815 9.39427 66.1989 9.3858 66.2139 9.37391C66.2288 9.36202 66.241 9.34699 66.2495 9.32989C66.2581 9.31279 66.2627 9.29402 66.2632 9.27492L66.2572 4.79037Z" fill="#191F38"/>
<path d="M74.6221 4.44431C69.7001 4.44431 66.1465 7.79414 66.1465 12.5121C66.1465 17.23 69.7001 20.5798 74.6221 20.5798C79.544 20.5798 83.1057 17.2018 83.1057 12.5121C83.1057 7.8223 79.546 4.44431 74.6221 4.44431ZM74.6221 15.8901C72.7285 15.8901 71.3019 14.4817 71.3019 12.5121C71.3019 10.5424 72.7285 9.13407 74.6221 9.13407C76.5458 9.13407 77.9423 10.5424 77.9423 12.5121C77.9423 14.4817 76.5458 15.8941 74.6221 15.8941V15.8901Z" fill="#191F38"/>
<path d="M111.392 16.0289C109.367 16.5017 107.569 15.3871 107.096 13.3249C106.974 12.853 106.95 12.3614 107.024 11.8798C107.098 11.3982 107.269 10.9366 107.527 10.523C107.784 10.1093 108.123 9.75205 108.522 9.47288C108.922 9.19371 109.373 8.99838 109.85 8.89869C110.812 8.67336 111.772 8.7136 112.382 9.13811C113.187 9.70346 112.985 10.6893 112.49 10.9287C111.899 11.2124 111.12 11.2828 110.774 11.321C110.197 11.3817 109.617 11.3965 109.037 11.3653C109.021 11.3636 109.005 11.3653 108.989 11.3701C108.974 11.3749 108.959 11.3828 108.947 11.3933C108.935 11.4039 108.924 11.4168 108.917 11.4313C108.91 11.4459 108.906 11.4617 108.905 11.478C108.878 11.999 108.778 14.0774 108.754 14.6608C108.753 14.6771 108.756 14.6933 108.762 14.7085C108.768 14.7238 108.776 14.7377 108.788 14.7495C108.799 14.7613 108.812 14.7707 108.827 14.7773C108.842 14.7838 108.858 14.7873 108.874 14.7876C111.136 14.8781 113.205 14.6347 115.207 13.5985C116.376 12.9949 117.511 11.826 117.503 10.2708C117.42 8.83834 117.101 7.60504 115.893 6.47635C114.082 4.75013 111.525 4.03792 108.734 4.69179C104.234 5.74804 101.771 9.73766 102.844 14.3188C103.916 18.8999 107.897 21.3846 112.398 20.3324C115.114 19.6966 117.086 17.9905 117.99 15.7311C117.997 15.7129 117.999 15.6935 117.998 15.6741C117.996 15.6547 117.99 15.636 117.98 15.6192C117.97 15.6025 117.957 15.5881 117.941 15.5772C117.925 15.5663 117.907 15.5591 117.887 15.5561L113.324 14.9787C113.305 14.9767 113.286 14.979 113.269 14.9853C113.252 14.9915 113.236 15.0017 113.223 15.0149C112.724 15.5238 112.088 15.8762 111.392 16.0289Z" fill="#7DFFB2"/>
<path d="M93.672 4.46041C92.1926 4.44159 90.7416 4.86701 89.5066 5.68164V0.130774C89.5066 0.0960907 89.4928 0.0628278 89.4683 0.0383029C89.4438 0.013778 89.4105 0 89.3758 0L84.48 0C84.4457 0.000528272 84.4129 0.0145391 84.3889 0.039007C84.3648 0.0634749 84.3513 0.0964365 84.3513 0.130774V20.0849C84.3513 20.1192 84.3648 20.1522 84.3889 20.1767C84.4129 20.2011 84.4457 20.2152 84.48 20.2157H88.579C88.6104 20.2155 88.6407 20.204 88.6644 20.1833C88.688 20.1626 88.7034 20.1341 88.7078 20.103L88.8949 18.8456C90.2388 19.9534 91.9303 20.5518 93.672 20.5356C98.2438 20.5356 101.274 17.0107 101.274 12.498C101.274 7.80823 98.0989 4.46041 93.672 4.46041ZM92.7987 15.876C90.8468 15.876 89.4483 14.4676 89.4483 12.498C89.4483 10.5283 90.8568 9.11999 92.7987 9.11999C94.7405 9.11999 96.147 10.5163 96.147 12.498C96.147 14.4797 94.7485 15.876 92.7987 15.876Z" fill="#7DFFB2"/>
<path d="M17.8848 20.3726L11.5744 4.52681C11.5648 4.5026 11.5482 4.48182 11.5267 4.46712C11.5052 4.45242 11.4798 4.44448 11.4537 4.44432H6.43919C6.41301 4.44392 6.38735 4.45163 6.36573 4.4664C6.34411 4.48118 6.3276 4.50228 6.31846 4.52681L0.0100701 20.3726C0.00218274 20.3921 -0.000809351 20.4132 0.00135533 20.4342C0.00352002 20.4551 0.0107756 20.4751 0.022488 20.4926C0.0342003 20.5101 0.050013 20.5244 0.0685441 20.5344C0.0870751 20.5443 0.107761 20.5496 0.128793 20.5497H5.27611C5.30305 20.5499 5.32939 20.5417 5.35141 20.5261C5.37343 20.5106 5.39002 20.4886 5.39886 20.4632L5.66247 19.7228C4.49338 19.2529 3.36305 18.6918 2.28189 18.0448C2.57568 18.2219 3.98023 18.6484 4.32231 18.7631C4.95186 18.96 5.59129 19.1239 6.23797 19.254C8.03144 19.6105 9.87756 19.6105 11.671 19.254C12.3149 19.1249 12.9517 18.9624 13.5786 18.7671C13.9187 18.6605 15.3253 18.2259 15.617 18.0489C14.5359 18.6959 13.4056 19.2569 12.2365 19.7268L12.5001 20.4672C12.5092 20.4925 12.5258 20.5143 12.5478 20.5298C12.5698 20.5453 12.5959 20.5536 12.6228 20.5537H17.7701C17.7912 20.5527 17.8116 20.5467 17.8298 20.5361C17.848 20.5256 17.8634 20.5108 17.8747 20.493C17.8859 20.4753 17.8927 20.455 17.8945 20.4341C17.8963 20.4131 17.893 20.392 17.8848 20.3726ZM7.12336 15.5762L7.73709 13.7655L8.94444 10.2909L10.1518 13.7655L10.7555 15.5762C10.3128 15.8418 9.62256 15.9786 8.93236 15.9947C8.24216 16.0108 7.56605 15.8418 7.12336 15.5762Z" fill="#191F38"/>
</svg>
